<svg xmlns="http://www.w3.org/2000/svg" xmlns:xlink="http://www.w3.org/1999/xlink" version="1.1" x="0px" y="0px" viewBox="0 0 36 52.5" enable-background="new 0 0 36 42" xml:space="preserve"><path d="M35.99,3.21c0-0.03,0-0.05,0.01-0.08c0-0.02,0-0.03,0-0.05c0-0.03,0-0.06,0-0.08c0-1.09-0.96-1.83-5.86-2.41  C26.89,0.21,22.58,0,18,0S9.11,0.21,5.86,0.59C0.96,1.17,0,1.91,0,3c0,0.02,0,0.05,0,0.08h0l0.01,0.07c0,0.02,0,0.04,0.01,0.06  l1.27,15.2c0,0,0,0.01,0,0.01l1.34,16.05c0,0.01,0,0.01,0,0.02L3,39c0,1.06,0.92,1.79,5.59,2.41C11.41,41.78,14.93,42,18,42  s6.59-0.22,9.41-0.59c4.68-0.62,5.59-1.35,5.59-2.32l1.73-20.73c0.01-0.05,0.01-0.09,0.01-0.14L35.99,3.21z M33.83,4.99l-0.95,11.46  c-1.17-0.35-3.07-0.66-6.13-0.89l-2.03-2.18c-1.08-1.16-3.08-1.23-4.24-0.14l-2.15,2.01l-0.24,0c-1.63,0-3.24,0.03-4.8,0.09  c-1-0.55-2.31-0.5-3.25,0.17c-3.55,0.24-5.66,0.59-6.91,0.97L2.17,4.99C4.47,5.66,9.05,6,18,6S31.53,5.66,33.83,4.99z M6.29,18.36  c-0.02,0-0.05-0.01-0.07-0.01c-0.57-0.08-1.04-0.16-1.42-0.23c0.69-0.13,1.61-0.27,2.81-0.4l-0.5,0.47l-0.26,0.24c0,0-0.01,0-0.01,0  C6.65,18.41,6.47,18.39,6.29,18.36z M11.12,17.19c0.18-0.17,0.43-0.27,0.68-0.27c0.28,0,0.54,0.11,0.73,0.31l1.59,1.7  c-1.71-0.05-3.26-0.14-4.62-0.24l0.55-0.51L11.12,17.19z M18.41,17.91l0.99-0.92c0,0,0,0,0,0l2.44-2.28  c0.18-0.17,0.43-0.27,0.68-0.27c0.28,0,0.54,0.11,0.73,0.31l3.21,3.43c0.08,0.08,0.13,0.18,0.18,0.29c0.02,0.04,0.03,0.08,0.04,0.11  c0.01,0.04,0.01,0.07,0.02,0.11c-2.27,0.18-5.13,0.3-8.53,0.3c0-0.01-0.01-0.01-0.01-0.01c-0.04-0.12-0.07-0.25-0.06-0.38  c0-0.13,0.03-0.26,0.09-0.38C18.24,18.11,18.31,18,18.41,17.91z M28.5,17.73c1.17,0.13,2.08,0.27,2.76,0.4  c-0.61,0.12-1.44,0.25-2.56,0.37c0-0.01-0.01-0.02-0.01-0.03c-0.03-0.25-0.09-0.5-0.19-0.73C28.5,17.74,28.5,17.74,28.5,17.73z   M16.39,17.35c-0.03,0.06-0.05,0.12-0.08,0.19c-0.04,0.1-0.08,0.21-0.11,0.32c-0.02,0.07-0.04,0.14-0.05,0.21  c-0.01,0.03-0.02,0.07-0.02,0.1l-0.82-0.88c0.37-0.01,0.74-0.01,1.12-0.02C16.41,17.29,16.4,17.32,16.39,17.35z M7.59,20.53  c2.91,0.3,6.2,0.41,8.34,0.45c0.05,0.13,0.08,0.26,0.07,0.4c-0.01,0.27-0.12,0.52-0.31,0.7l-3.43,3.2  c-0.39,0.36-1.05,0.34-1.41-0.05l-3.2-3.43C7.3,21.45,7.3,20.91,7.59,20.53z M13.9,26.6l3.43-3.21c0.18-0.17,0.43-0.27,0.68-0.27  c0.28,0,0.54,0.11,0.73,0.31l3.2,3.43c0.38,0.4,0.35,1.04-0.05,1.41l-3.43,3.21c-0.39,0.36-1.05,0.34-1.41-0.05l-3.2-3.43  c-0.18-0.19-0.28-0.45-0.27-0.72C13.59,27.03,13.7,26.78,13.9,26.6z M21.57,22.75l-1.65-1.77c1.34-0.02,3.23-0.07,5.21-0.19l-2.14,2  C22.59,23.16,21.93,23.14,21.57,22.75z M3.41,19.86c0.46,0.12,1.03,0.24,1.7,0.35c0.04,0.01,0.08,0.01,0.13,0.02  c0.09,0.01,0.18,0.03,0.27,0.04c-0.29,0.99-0.08,2.09,0.67,2.9l3.2,3.43c0.56,0.6,1.36,0.95,2.19,0.95c0.01,0,0.02,0,0.03,0  c0.05,0.68,0.31,1.33,0.78,1.83l3.2,3.43c0.56,0.6,1.36,0.95,2.19,0.95c0.76,0,1.49-0.29,2.05-0.81l3.43-3.21  c1.21-1.13,1.27-3.03,0.14-4.24L22.93,25c0.53-0.11,1.02-0.36,1.42-0.73l3.43-3.21c0.16-0.15,0.3-0.32,0.42-0.49  c2.02-0.2,3.43-0.43,4.4-0.69l-1.15,13.76c-2.64,0.71-8.38,1.25-13.44,1.25S7.19,34.34,4.56,33.63L3.41,19.86z M18,2  c7.01,0,12.2,0.49,14.67,1C30.2,3.51,25.01,4,18,4S5.8,3.51,3.33,3C5.8,2.49,10.99,2,18,2z M18,40c-5.67,0-11.71-0.75-13.03-1.39  l-0.24-2.87c3.28,0.73,8.93,1.16,13.27,1.16c4.34,0,10-0.43,13.27-1.16l-0.24,2.87C29.72,39.24,23.67,40,18,40z"/><text x="0" y="57" fill="#000000" font-size="5px" font-weight="bold" font-family="'Helvetica Neue', Helvetica, Arial-Unicode, Arial, Sans-serif">Created by Oliviu Stoian</text><text x="0" y="62" fill="#000000" font-size="5px" font-weight="bold" font-family="'Helvetica Neue', Helvetica, Arial-Unicode, Arial, Sans-serif">from the Noun Project</text></svg>